<?xml version="1.0" encoding="iso-8859-1"?>
<!-- Generator: Adobe Illustrator 19.0.0, SVG Export Plug-In . SVG Version: 6.00 Build 0)  -->
<svg version="1.1" id="Layer_1" xmlns="http://www.w3.org/2000/svg" xmlns:xlink="http://www.w3.org/1999/xlink" x="0px" y="0px"
	 viewBox="0 0 512 512" style="enable-background:new 0 0 512 512;" xml:space="preserve">
<g>
	<g>
		<g>
			<path d="M149.333,149.333h213.333c11.782,0,21.333-9.551,21.333-21.333V21.333C384,9.551,374.449,0,362.667,0H149.333
				C137.551,0,128,9.551,128,21.333V128C128,139.782,137.551,149.333,149.333,149.333z M170.667,42.667h170.667v64H170.667V42.667z"
				/>
			<path d="M512,341.333c0-27.872-17.808-51.562-42.667-60.346v-67.654c0-11.782-9.551-21.333-21.333-21.333H64
				c-11.782,0-21.333,9.551-21.333,21.333v67.654C17.808,289.772,0,313.461,0,341.333c0,18.958,8.243,35.98,21.333,47.697v101.636
				c0,11.782,9.551,21.333,21.333,21.333h64c11.782,0,21.333-9.551,21.333-21.333v-21.333h256v21.333
				c0,11.782,9.551,21.333,21.333,21.333h64c11.782,0,21.333-9.551,21.333-21.333V389.03C503.757,377.313,512,360.292,512,341.333z
				 M426.667,341.333c0-11.791,9.542-21.333,21.333-21.333s21.333,9.542,21.333,21.333c0,11.791-9.542,21.333-21.333,21.333
				S426.667,353.125,426.667,341.333z M85.333,234.667h341.333v46.306c-0.131,0.046-0.259,0.099-0.39,0.146
				c-0.283,0.102-0.563,0.211-0.844,0.317c-0.624,0.235-1.244,0.479-1.859,0.733c-0.297,0.123-0.593,0.246-0.888,0.373
				c-0.645,0.278-1.282,0.568-1.916,0.866c-0.227,0.107-0.458,0.209-0.684,0.319c-0.846,0.41-1.681,0.837-2.506,1.283
				c-0.166,0.09-0.327,0.186-0.491,0.277c-0.661,0.365-1.316,0.741-1.963,1.128c-0.266,0.16-0.53,0.324-0.793,0.488
				c-0.555,0.344-1.104,0.695-1.647,1.056c-0.259,0.171-0.518,0.342-0.774,0.517c-0.619,0.423-1.229,0.859-1.833,1.303
				c-0.152,0.112-0.307,0.219-0.458,0.332c-0.745,0.559-1.477,1.135-2.196,1.726c-0.191,0.157-0.377,0.32-0.567,0.48
				c-0.531,0.446-1.055,0.898-1.571,1.36c-0.236,0.212-0.469,0.426-0.702,0.641c-0.48,0.444-0.953,0.895-1.419,1.353
				c-0.211,0.207-0.424,0.413-0.633,0.623c-0.604,0.61-1.198,1.231-1.778,1.865c-0.05,0.055-0.103,0.107-0.153,0.162
				c-0.626,0.69-1.234,1.396-1.83,2.113c-0.179,0.215-0.352,0.435-0.527,0.652c-0.419,0.517-0.831,1.04-1.234,1.571
				c-0.193,0.254-0.384,0.509-0.573,0.766c-0.399,0.542-0.788,1.091-1.171,1.646c-0.155,0.225-0.313,0.446-0.465,0.673
				c-0.52,0.776-1.027,1.561-1.513,2.361c-0.062,0.102-0.119,0.207-0.18,0.309c-0.422,0.702-0.831,1.413-1.226,2.133
				c-0.146,0.267-0.287,0.536-0.43,0.805c-0.307,0.579-0.607,1.162-0.897,1.751c-0.141,0.287-0.282,0.574-0.419,0.863
				c-0.305,0.644-0.598,1.296-0.882,1.952c-0.094,0.218-0.194,0.432-0.286,0.651c-0.366,0.87-0.713,1.75-1.04,2.64
				c-0.074,0.201-0.14,0.405-0.212,0.606c-0.249,0.699-0.489,1.402-0.714,2.112c-0.097,0.305-0.189,0.611-0.281,0.918
				c-0.192,0.638-0.374,1.28-0.547,1.926c-0.081,0.305-0.164,0.608-0.241,0.915c-0.195,0.776-0.374,1.557-0.541,2.344
				c-0.035,0.163-0.075,0.324-0.108,0.488c-0.192,0.947-0.361,1.901-0.511,2.863c-0.042,0.268-0.075,0.539-0.113,0.809
				c-0.101,0.707-0.193,1.417-0.271,2.132c-0.036,0.333-0.069,0.668-0.1,1.003c-0.065,0.694-0.117,1.391-0.159,2.091
				c-0.019,0.307-0.041,0.613-0.055,0.921c-0.046,0.996-0.076,1.995-0.076,3.002c0,1.029,0.03,2.051,0.078,3.068
				c0.016,0.329,0.043,0.654,0.063,0.982c0.043,0.689,0.092,1.376,0.156,2.059c0.036,0.379,0.079,0.756,0.122,1.133
				c0.071,0.634,0.151,1.265,0.24,1.893c0.054,0.381,0.111,0.761,0.172,1.139c0.103,0.637,0.218,1.27,0.339,1.9
				c0.067,0.35,0.131,0.701,0.204,1.049c0.153,0.73,0.323,1.453,0.501,2.173c0.058,0.236,0.109,0.476,0.17,0.711
				c0.246,0.95,0.513,1.891,0.801,2.823c0.071,0.228,0.151,0.452,0.224,0.679c0.185,0.577,0.367,1.154,0.569,1.724H124.361
				c0.202-0.571,0.385-1.151,0.571-1.73c0.072-0.225,0.152-0.446,0.222-0.672c0.288-0.933,0.556-1.875,0.802-2.826
				c0.06-0.232,0.11-0.469,0.168-0.702c0.179-0.723,0.349-1.449,0.503-2.182c0.073-0.347,0.136-0.697,0.203-1.046
				c0.122-0.631,0.237-1.265,0.34-1.902c0.061-0.379,0.117-0.759,0.172-1.139c0.09-0.628,0.169-1.26,0.24-1.894
				c0.042-0.376,0.086-0.752,0.121-1.13c0.065-0.684,0.114-1.373,0.157-2.063c0.02-0.327,0.047-0.651,0.063-0.979
				c0.048-1.017,0.078-2.039,0.078-3.068c0-1.007-0.03-2.007-0.076-3.002c-0.014-0.308-0.037-0.614-0.055-0.921
				c-0.042-0.7-0.094-1.397-0.159-2.091c-0.031-0.335-0.064-0.669-0.1-1.003c-0.078-0.715-0.169-1.425-0.271-2.132
				c-0.039-0.269-0.072-0.54-0.113-0.809c-0.15-0.962-0.319-1.917-0.511-2.864c-0.033-0.161-0.073-0.32-0.107-0.481
				c-0.167-0.789-0.347-1.572-0.542-2.35c-0.077-0.306-0.16-0.609-0.241-0.913c-0.173-0.647-0.355-1.291-0.548-1.93
				c-0.092-0.306-0.184-0.612-0.281-0.916c-0.225-0.708-0.464-1.41-0.713-2.108c-0.073-0.203-0.139-0.41-0.214-0.612
				c-0.328-0.889-0.675-1.768-1.04-2.638c-0.092-0.218-0.191-0.432-0.285-0.649c-0.285-0.657-0.578-1.309-0.884-1.955
				c-0.137-0.289-0.277-0.575-0.418-0.861c-0.29-0.59-0.59-1.174-0.898-1.753c-0.142-0.268-0.283-0.537-0.429-0.803
				c-0.396-0.72-0.805-1.432-1.227-2.135c-0.061-0.102-0.118-0.206-0.18-0.308c-0.487-0.799-0.993-1.585-1.513-2.361
				c-0.152-0.227-0.31-0.448-0.465-0.673c-0.382-0.555-0.772-1.105-1.171-1.647c-0.189-0.256-0.379-0.511-0.572-0.764
				c-0.403-0.531-0.815-1.053-1.234-1.571c-0.177-0.218-0.35-0.438-0.529-0.654c-0.596-0.716-1.203-1.422-1.829-2.112
				c-0.05-0.055-0.103-0.107-0.153-0.162c-0.58-0.634-1.173-1.254-1.777-1.864c-0.209-0.211-0.422-0.416-0.634-0.624
				c-0.466-0.457-0.937-0.908-1.417-1.351c-0.233-0.215-0.467-0.43-0.703-0.642c-0.516-0.463-1.04-0.915-1.571-1.361
				c-0.189-0.159-0.375-0.322-0.566-0.479c-0.72-0.59-1.451-1.167-2.196-1.726c-0.151-0.113-0.306-0.22-0.457-0.331
				c-0.603-0.445-1.214-0.88-1.833-1.303c-0.256-0.175-0.516-0.346-0.775-0.518c-0.543-0.36-1.091-0.711-1.645-1.054
				c-0.264-0.164-0.528-0.328-0.794-0.488c-0.648-0.388-1.303-0.764-1.965-1.13c-0.164-0.09-0.324-0.186-0.488-0.275
				c-0.824-0.446-1.66-0.873-2.506-1.283c-0.227-0.11-0.457-0.212-0.685-0.32c-0.633-0.298-1.27-0.588-1.914-0.865
				c-0.295-0.127-0.592-0.251-0.889-0.373c-0.614-0.254-1.233-0.497-1.857-0.732c-0.282-0.106-0.562-0.215-0.846-0.317
				c-0.131-0.047-0.259-0.1-0.39-0.146V234.667z M64,320c11.791,0,21.333,9.542,21.333,21.333c0,11.791-9.542,21.333-21.333,21.333
				s-21.333-9.542-21.333-21.333C42.667,329.542,52.209,320,64,320z M85.333,469.333H64v-64h21.333V448V469.333z M128,426.667
				v-21.333h256v21.333H128z M448,469.333h-21.333V448v-42.667H448V469.333z"/>
		</g>
	</g>
</g>
<g>
</g>
<g>
</g>
<g>
</g>
<g>
</g>
<g>
</g>
<g>
</g>
<g>
</g>
<g>
</g>
<g>
</g>
<g>
</g>
<g>
</g>
<g>
</g>
<g>
</g>
<g>
</g>
<g>
</g>
</svg>
