<?xml version="1.0" encoding="iso-8859-1"?>
<!-- Generator: Adobe Illustrator 19.0.0, SVG Export Plug-In . SVG Version: 6.00 Build 0)  -->
<svg version="1.1" id="Layer_1" xmlns="http://www.w3.org/2000/svg" xmlns:xlink="http://www.w3.org/1999/xlink" x="0px" y="0px"
	 viewBox="0 0 512 512" style="enable-background:new 0 0 512 512;" xml:space="preserve">
<g>
	<g>
		<path d="M461.913,205.912H133.565v-16.696c0-27.618-22.469-50.087-50.087-50.087H66.783V89.042c0-9.206,7.49-16.696,16.696-16.696
			s16.696,7.49,16.696,16.696c0,9.22,7.475,16.696,16.696,16.696s16.696-7.475,16.696-16.696c0-27.618-22.469-50.087-50.087-50.087
			c-27.618,0-50.087,22.469-50.087,50.087c0,11.701,0,107.704,0,119.741C13.96,215.676,0,234.233,0,255.999
			s13.96,40.322,33.391,47.214v19.567c0,50.341,31.993,93.349,76.714,109.762l-8.169,16.337c-4.124,8.247-0.78,18.276,7.466,22.399
			c8.241,4.123,18.274,0.784,22.4-7.466l12.167-24.332c2.084,0.111,4.181,0.17,6.292,0.17H361.74c2.11,0,4.208-0.059,6.292-0.17
			l12.167,24.332c4.13,8.261,14.169,11.585,22.4,7.466c8.248-4.123,11.59-14.152,7.466-22.399l-8.169-16.337
			c44.719-16.412,76.712-59.421,76.712-109.761v-19.567c19.433-6.892,33.391-25.45,33.391-47.215
			C512,228.381,489.531,205.912,461.913,205.912z M66.783,172.52h16.696c9.206,0,16.696,7.49,16.696,16.696v16.696H66.783V172.52z
			 M445.217,322.781c0,46.03-37.448,83.478-83.478,83.478H150.261c-46.03,0-83.478-37.448-83.478-83.478v-16.696h378.435V322.781z
			 M461.913,272.693H50.087c-9.206,0-16.696-7.49-16.696-16.696c0-9.206,7.49-16.696,16.696-16.696c19.219,0,392.452,0,411.826,0
			c9.206,0,16.696,7.49,16.696,16.696C478.609,265.204,471.119,272.693,461.913,272.693z"/>
	</g>
</g>
<g>
</g>
<g>
</g>
<g>
</g>
<g>
</g>
<g>
</g>
<g>
</g>
<g>
</g>
<g>
</g>
<g>
</g>
<g>
</g>
<g>
</g>
<g>
</g>
<g>
</g>
<g>
</g>
<g>
</g>
</svg>
